<svg width="437" height="436" viewBox="0 0 437 436" fill="none" xmlns="http://www.w3.org/2000/svg">
<rect x="0.181763" width="436" height="436" rx="218" fill="url(#paint0_linear_24_9)"/>
<path d="M154.887 322.046C150.071 322.046 145.976 320.36 142.604 316.988C139.232 313.616 137.547 309.522 137.547 304.705V139.966H125.697V122.625H180.032V113.955H256.332V122.625H310.667V139.966H298.817V304.705C298.817 309.329 297.083 313.375 293.615 316.843C290.147 320.311 286.1 322.046 281.476 322.046H154.887ZM281.476 139.966H154.887V304.705H281.476V139.966ZM185.523 279.849H202.864V164.532H185.523V279.849ZM233.5 279.849H250.84V164.532H233.5V279.849ZM154.887 139.966V304.705V139.966Z" fill="white"/>
<defs>
<linearGradient id="paint0_linear_24_9" x1="218.182" y1="0" x2="218.182" y2="436" gradientUnits="userSpaceOnUse">
<stop stop-color="#FF0000"/>
<stop offset="1" stop-color="#6F0000"/>
</linearGradient>
</defs>
</svg>
