<svg width="436" height="436" viewBox="0 0 436 436" fill="none" xmlns="http://www.w3.org/2000/svg">
<rect width="436" height="436" rx="218" fill="url(#paint0_linear_24_13)"/>
<path d="M131.295 304.704H144.012L272.046 176.671L259.329 163.954L131.295 291.988V304.704ZM308.751 164.243L271.757 127.249L283.896 115.111C287.171 111.835 291.217 110.197 296.034 110.197C300.851 110.197 304.897 111.835 308.173 115.111L320.889 127.827C324.165 131.103 325.803 135.149 325.803 139.966C325.803 144.783 324.165 148.829 320.889 152.104L308.751 164.243ZM296.612 176.382L150.949 322.045H113.955V285.051L259.618 139.388L296.612 176.382ZM265.688 170.312L259.329 163.954L272.046 176.671L265.688 170.312Z" fill="white"/>
<defs>
<linearGradient id="paint0_linear_24_13" x1="218" y1="0" x2="218" y2="436" gradientUnits="userSpaceOnUse">
<stop stop-color="#007A95"/>
<stop offset="1" stop-color="#00386C"/>
</linearGradient>
</defs>
</svg>
