<svg width="241" height="241" viewBox="0 0 241 241" fill="none" xmlns="http://www.w3.org/2000/svg">
<path d="M120.5 120.249C109.454 120.249 100.417 116.734 93.3873 109.705C86.3582 102.676 82.8436 93.6386 82.8436 82.5927C82.8436 71.5469 86.3582 62.5094 93.3873 55.4802C100.417 48.451 109.454 44.9365 120.5 44.9365C131.546 44.9365 140.583 48.451 147.612 55.4802C154.641 62.5094 158.156 71.5469 158.156 82.5927C158.156 93.6386 154.641 102.676 147.612 109.705C140.583 116.734 131.546 120.249 120.5 120.249ZM40.1665 200.833V177.235C40.1665 170.876 41.7564 165.436 44.9363 160.918C48.1162 156.399 52.2165 152.968 57.2373 150.625C68.4505 145.604 79.2035 141.839 89.4962 139.328C99.7889 136.818 110.123 135.562 120.5 135.562C130.876 135.562 141.169 136.86 151.378 139.454C161.587 142.048 172.298 145.772 183.511 150.625C188.699 152.968 192.883 156.399 196.063 160.918C199.243 165.436 200.833 170.876 200.833 177.235V200.833H40.1665ZM55.229 185.771H185.771V177.235C185.771 174.558 184.976 172.005 183.386 169.579C181.796 167.152 179.829 165.353 177.486 164.181C166.775 158.993 156.985 155.437 148.114 153.512C139.244 151.587 130.039 150.625 120.5 150.625C110.96 150.625 101.672 151.587 92.6342 153.512C83.5967 155.437 73.8061 158.993 63.2623 164.181C60.9193 165.353 58.9946 167.152 57.4884 169.579C55.9821 172.005 55.229 174.558 55.229 177.235V185.771ZM120.5 105.186C127.027 105.186 132.424 103.053 136.692 98.7849C140.96 94.5172 143.094 89.1198 143.094 82.5927C143.094 76.0656 140.96 70.6682 136.692 66.4005C132.424 62.1328 127.027 59.999 120.5 59.999C113.973 59.999 108.575 62.1328 104.308 66.4005C100.04 70.6682 97.9061 76.0656 97.9061 82.5927C97.9061 89.1198 100.04 94.5172 104.308 98.7849C108.575 103.053 113.973 105.186 120.5 105.186Z" fill="#009540"/>
</svg>
