<svg width="390" height="390" viewBox="0 0 390 390" fill="none" xmlns="http://www.w3.org/2000/svg">
<path d="M195 194.594C177.125 194.594 162.5 188.906 151.125 177.531C139.75 166.156 134.062 151.531 134.062 133.656C134.062 115.781 139.75 101.156 151.125 89.7813C162.5 78.4063 177.125 72.7188 195 72.7188C212.875 72.7188 227.5 78.4063 238.875 89.7813C250.25 101.156 255.937 115.781 255.937 133.656C255.937 151.531 250.25 166.156 238.875 177.531C227.5 188.906 212.875 194.594 195 194.594ZM65 325V286.812C65 276.521 67.5729 267.719 72.7187 260.406C77.8646 253.094 84.5 247.542 92.625 243.75C110.771 235.625 128.172 229.531 144.828 225.469C161.484 221.406 178.208 219.375 195 219.375C211.792 219.375 228.448 221.474 244.969 225.672C261.49 229.87 278.823 235.896 296.969 243.75C305.365 247.542 312.135 253.094 317.281 260.406C322.427 267.719 325 276.521 325 286.812V325H65ZM89.375 300.625H300.625V286.812C300.625 282.479 299.339 278.349 296.766 274.422C294.193 270.495 291.01 267.583 287.219 265.688C269.885 257.292 254.042 251.536 239.687 248.422C225.333 245.307 210.437 243.75 195 243.75C179.562 243.75 164.531 245.307 149.906 248.422C135.281 251.536 119.437 257.292 102.375 265.688C98.5833 267.583 95.4687 270.495 93.0312 274.422C90.5937 278.349 89.375 282.479 89.375 286.812V300.625ZM195 170.219C205.562 170.219 214.297 166.766 221.203 159.859C228.109 152.953 231.562 144.219 231.562 133.656C231.562 123.094 228.109 114.359 221.203 107.453C214.297 100.547 205.562 97.0938 195 97.0938C184.437 97.0938 175.703 100.547 168.797 107.453C161.891 114.359 158.437 123.094 158.437 133.656C158.437 144.219 161.891 152.953 168.797 159.859C175.703 166.766 184.437 170.219 195 170.219Z" fill="white"/>
</svg>
