<svg width="390" height="390" viewBox="0 0 390 390" fill="none" xmlns="http://www.w3.org/2000/svg">
<path d="M176.312 286.406L269.344 193.375L253.5 177.531L176.312 254.719L134.469 212.875L118.625 228.719L176.312 286.406ZM89.375 357.5C82.875 357.5 77.1875 355.063 72.3125 350.188C67.4375 345.313 65 339.625 65 333.125V56.875C65 50.375 67.4375 44.6875 72.3125 39.8125C77.1875 34.9375 82.875 32.5 89.375 32.5H236.031L325 121.469V333.125C325 339.625 322.562 345.313 317.687 350.188C312.812 355.063 307.125 357.5 300.625 357.5H89.375ZM223.844 132.438V56.875H89.375V333.125H300.625V132.438H223.844ZM89.375 56.875V132.438V56.875V333.125V56.875Z" fill="white"/>
</svg>
