<svg width="390" height="390" viewBox="0 0 390 390" fill="none" xmlns="http://www.w3.org/2000/svg">
<path d="M162.5 192.969C144.625 192.969 130 187.281 118.625 175.906C107.25 164.531 101.562 149.906 101.562 132.031C101.562 114.156 107.25 99.5313 118.625 88.1563C130 76.7813 144.625 71.0938 162.5 71.0938C180.375 71.0938 195 76.7813 206.375 88.1563C217.75 99.5313 223.438 114.156 223.438 132.031C223.438 149.906 217.75 164.531 206.375 175.906C195 187.281 180.375 192.969 162.5 192.969ZM32.5 323.375V285.188C32.5 275.708 34.8698 267.177 39.6094 259.594C44.349 252.01 51.1875 246.188 60.125 242.125C79.625 233.458 97.7031 227.229 114.359 223.438C131.016 219.646 147.062 217.75 162.5 217.75H171.844C170.219 221.542 169 225.266 168.188 228.922C167.375 232.578 166.698 236.979 166.156 242.125H162.5C146.792 242.125 131.422 243.818 116.391 247.203C101.359 250.589 85.8542 256.208 69.875 264.063C65.5417 266.229 62.2917 269.276 60.125 273.203C57.9583 277.13 56.875 281.125 56.875 285.188V299H166.156C167.51 303.875 169.135 308.276 171.031 312.203C172.927 316.13 175.229 319.854 177.938 323.375H32.5ZM270.969 341.25L266.906 314.438C262.302 313.083 257.63 311.12 252.891 308.547C248.151 305.974 244.156 303.063 240.906 299.813L218.562 304.688L208.406 287.625L227.5 269.75C226.958 267.313 226.688 263.927 226.688 259.594C226.688 255.26 226.958 251.875 227.5 249.438L208.406 231.563L218.562 214.5L240.906 219.375C244.156 216.125 248.151 213.214 252.891 210.641C257.63 208.068 262.302 206.104 266.906 204.75L270.969 177.938H292.906L296.969 204.75C301.573 206.104 306.245 208.068 310.984 210.641C315.724 213.214 319.719 216.125 322.969 219.375L345.312 214.5L355.469 231.563L336.375 249.438C336.917 251.875 337.188 255.26 337.188 259.594C337.188 263.927 336.917 267.313 336.375 269.75L355.469 287.625L345.312 304.688L322.969 299.813C319.719 303.063 315.724 305.974 310.984 308.547C306.245 311.12 301.573 313.083 296.969 314.438L292.906 341.25H270.969ZM281.938 292.094C291.688 292.094 299.542 289.115 305.5 283.156C311.458 277.198 314.438 269.344 314.438 259.594C314.438 249.844 311.458 241.99 305.5 236.031C299.542 230.073 291.688 227.094 281.938 227.094C272.188 227.094 264.333 230.073 258.375 236.031C252.417 241.99 249.438 249.844 249.438 259.594C249.438 269.344 252.417 277.198 258.375 283.156C264.333 289.115 272.188 292.094 281.938 292.094ZM162.5 168.594C173.062 168.594 181.797 165.141 188.703 158.234C195.609 151.328 199.062 142.594 199.062 132.031C199.062 121.469 195.609 112.734 188.703 105.828C181.797 98.9219 173.062 95.4688 162.5 95.4688C151.938 95.4688 143.203 98.9219 136.297 105.828C129.391 112.734 125.938 121.469 125.938 132.031C125.938 142.594 129.391 151.328 136.297 158.234C143.203 165.141 151.938 168.594 162.5 168.594Z" fill="white"/>
</svg>
